<svg width="24" height="24" viewBox="0 0 24 24" fill="none" xmlns="http://www.w3.org/2000/svg">
<g clip-path="url(#clip0)">
<path d="M11.5 17.0631C6.81308 17.0631 3 13.2359 3 8.53156C3 3.82724 6.81308 0 11.5 0C16.1869 0 20 3.82724 20 8.53156C20 13.2359 16.1869 17.0631 11.5 17.0631ZM11.5 2.39203C8.12383 2.39203 5.38318 5.14286 5.38318 8.53156C5.38318 11.9203 8.12383 14.6711 11.5 14.6711C14.8762 14.6711 17.6168 11.9203 17.6168 8.53156C17.6168 5.14286 14.8762 2.39203 11.5 2.39203Z" fill="#2D302D"/>
<path d="M15.3925 24C15.1939 24 14.9953 23.9601 14.7967 23.8405L11.5 21.887L8.20328 23.8405C7.80608 24.0797 7.32945 24.0398 6.97197 23.8006C6.57478 23.5614 6.37618 23.1229 6.45562 22.6843L7.25001 15.4684C7.32945 14.8305 7.92524 14.3521 8.56076 14.392C9.19627 14.4717 9.67291 15.0697 9.63319 15.7076L9.11683 20.5714L10.9837 19.495C11.3411 19.2956 11.8178 19.2956 12.1752 19.495L14.0421 20.5714L13.5257 15.7076C13.4463 15.0697 13.9229 14.4717 14.5981 14.392C15.2337 14.3122 15.8294 14.7907 15.9089 15.4684L16.7033 22.6843C16.743 23.1229 16.5444 23.5614 16.1869 23.8006C15.8294 23.9202 15.6309 24 15.3925 24Z" fill="#2D302D"/>
</g>
<defs>
<clipPath id="clip0">
<rect width="17" height="24" fill="white" transform="translate(3)"/>
</clipPath>
</defs>
</svg>
