<svg width="16" height="19" viewBox="0 0 16 19" fill="none" xmlns="http://www.w3.org/2000/svg">
<path d="M15.3862 2.2711H11.0895V1.65729C11.0895 0.736573 10.3325 0 9.43223 0H6.79284C5.87212 0 5.13555 0.757033 5.13555 1.65729V2.2711H0.634271C0.286445 2.2711 0 2.55754 0 2.90537C0 3.2532 0.286445 3.53964 0.634271 3.53964H1.92327V16C1.92327 17.2072 2.90537 18.1688 4.09207 18.1688H12.1125C13.3197 18.1688 14.2813 17.1867 14.2813 16V3.53964H15.3657C15.7136 3.53964 16 3.2532 16 2.90537C16 2.55754 15.734 2.2711 15.3862 2.2711ZM5.99488 14.3632C5.99488 14.711 5.70844 14.9974 5.36061 14.9974C5.01279 14.9974 4.72634 14.711 4.72634 14.3632V6.07673C4.72634 5.7289 5.01279 5.44246 5.36061 5.44246C5.70844 5.44246 5.99488 5.7289 5.99488 6.07673V14.3632ZM8.73657 14.3632C8.73657 14.711 8.45013 14.9974 8.1023 14.9974C7.75448 14.9974 7.46803 14.711 7.46803 14.3632V6.07673C7.46803 5.7289 7.75448 5.44246 8.1023 5.44246C8.45013 5.44246 8.73657 5.7289 8.73657 6.07673V14.3632ZM9.80051 2.2711H6.40409V1.65729C6.40409 1.45269 6.56777 1.26854 6.79284 1.26854H9.43223C9.63683 1.26854 9.82097 1.43223 9.82097 1.65729V2.2711H9.80051ZM11.5396 14.3632C11.5396 14.711 11.2532 14.9974 10.9054 14.9974C10.5575 14.9974 10.2711 14.711 10.2711 14.3632V6.07673C10.2711 5.7289 10.5575 5.44246 10.9054 5.44246C11.2532 5.44246 11.5396 5.7289 11.5396 6.07673V14.3632Z" fill="#BDC1BE"/>
</svg>
