<svg width="22" height="19" viewBox="0 0 22 19" fill="none" xmlns="http://www.w3.org/2000/svg">
<g clip-path="url(#clip0)">
<path d="M19.474 15.0079H6.18615C5.63706 15.0079 5.19779 14.6013 5.08798 14.0838L3.66036 5.32307C3.62375 4.99039 3.69696 4.6577 3.9166 4.43591C4.13623 4.17716 4.42907 4.0293 4.75853 4.0293H20.9016C21.2311 4.0293 21.5239 4.17716 21.7436 4.43591C21.9632 4.69467 22.0364 5.02735 21.9998 5.32307L20.5722 14.0838C20.4624 14.6382 20.0231 15.0079 19.474 15.0079ZM7.10129 12.79H18.5223L19.5838 6.2472H6.03972L7.10129 12.79Z" fill="#676B68"/>
<path d="M4.75874 6.24708C4.35607 6.24708 3.95341 5.98833 3.77038 5.58171L2.23294 2.2179H1.09817C0.475874 2.2179 0 1.73735 0 1.10895C0 0.480545 0.475874 0 1.09817 0H2.92845C3.36772 0 3.73378 0.258755 3.91681 0.66537L5.71048 4.69455C5.96672 5.24903 5.71048 5.9144 5.1614 6.17315C5.05158 6.21012 4.90516 6.24708 4.75874 6.24708Z" fill="#676B68"/>
<path d="M7.90661 19.0373C8.71528 19.0373 9.37084 18.3753 9.37084 17.5587C9.37084 16.7421 8.71528 16.0801 7.90661 16.0801C7.09794 16.0801 6.44238 16.7421 6.44238 17.5587C6.44238 18.3753 7.09794 19.0373 7.90661 19.0373Z" fill="#676B68"/>
<path d="M17.3143 19.0373C18.123 19.0373 18.7786 18.3753 18.7786 17.5587C18.7786 16.7421 18.123 16.0801 17.3143 16.0801C16.5057 16.0801 15.8501 16.7421 15.8501 17.5587C15.8501 18.3753 16.5057 19.0373 17.3143 19.0373Z" fill="#676B68"/>
</g>
<defs>
<clipPath id="clip0">
<rect width="22" height="19" fill="white"/>
</clipPath>
</defs>
</svg>
