<svg width="24" height="24" viewBox="0 0 24 24" fill="none" xmlns="http://www.w3.org/2000/svg">
<g clip-path="url(#clip0)">
<path d="M11.9308 22.3659C11.857 22.3659 11.7463 22.3659 11.6725 22.329C11.488 22.2922 11.3405 22.1815 11.1929 22.0708L2.92844 13.6219C0.235117 10.8548 0.235117 6.42738 2.92844 3.69716C4.03528 2.59032 5.40039 2 6.87618 2H6.91308C8.57335 2 10.3812 2.77479 11.9677 4.1399C13.5173 2.77479 15.3251 2 16.9854 2H17.0223C18.4981 2 19.8632 2.59032 20.97 3.69716C23.6633 6.39048 23.6633 10.8548 20.97 13.6219L12.6687 22.0708C12.4842 22.2922 12.2259 22.3659 11.9308 22.3659ZM6.87618 4.06611C5.95381 4.06611 5.10523 4.43506 4.36734 5.17295C2.44881 7.09149 2.44881 10.2275 4.36734 12.183L11.9308 19.894L19.4942 12.183C21.4127 10.2275 21.4127 7.09149 19.4942 5.17295C18.7563 4.43506 17.9446 4.06611 16.9854 4.06611C16.9854 4.06611 16.9854 4.06611 16.9485 4.06611C15.5834 4.06611 13.9969 4.8778 12.6318 6.2798L12.5949 6.31669C12.4104 6.50117 12.1152 6.61185 11.857 6.61185C11.5987 6.61185 11.3405 6.50117 11.1191 6.2798C9.86467 4.8778 8.27819 4.06611 6.87618 4.06611Z" fill="currentColor"/>
</g>
<defs>
<clipPath id="clip0">
<rect width="22.1" height="20.3659" fill="white" transform="translate(0.900024 2)"/>
</clipPath>
</defs>
</svg>
