<svg width="1180" height="161" viewBox="0 0 1180 161" fill="none" xmlns="http://www.w3.org/2000/svg">
<path d="M232.998 120.509C228.533 118.865 224.938 116.558 222.192 113.579C221.407 112.636 221.015 111.739 221.015 110.88C221.015 109.554 221.641 108.377 222.892 107.359C223.835 106.658 224.807 106.303 225.825 106.303C227.151 106.303 228.29 106.855 229.234 107.947C231.111 110.142 233.595 111.823 236.696 113C239.788 114.177 243.215 114.765 246.97 114.765C252.452 114.765 256.561 113.822 259.298 111.945C262.034 110.067 263.445 107.602 263.529 104.548C263.529 101.727 262.156 99.3828 259.419 97.4962C256.674 95.6189 252.331 94.2087 246.381 93.2654C238.704 92.0139 232.97 89.8377 229.178 86.7463C225.377 83.6549 223.481 79.9191 223.481 75.5294C223.481 69.8136 225.694 65.3866 230.112 62.2579C234.539 59.1291 240.077 57.56 246.727 57.56C251.892 57.56 256.393 58.438 260.232 60.2031C264.071 61.9683 267.162 64.4153 269.506 67.5441C270.132 68.5621 270.449 69.468 270.449 70.2432C270.449 71.5788 269.824 72.6342 268.572 73.4094C268.021 73.8016 267.283 73.9978 266.34 73.9978C264.696 73.9978 263.323 73.4094 262.231 72.2326C258.392 67.8523 253.153 65.6575 246.493 65.6575C242.188 65.6575 238.741 66.5354 236.154 68.3006C233.567 70.0658 232.278 72.2793 232.278 74.9317C232.278 77.7523 233.493 80.0031 235.921 81.6842C238.349 83.3654 242.655 84.7196 248.838 85.7376C257.215 87.1479 263.202 89.4361 266.807 92.6116C270.412 95.7777 272.205 99.719 272.205 104.417C272.205 108.022 271.131 111.225 268.974 114.046C266.816 116.867 263.828 119.061 259.989 120.621C256.151 122.19 251.808 122.965 246.951 122.965C242.122 122.975 237.462 122.153 232.998 120.509Z" fill="currentColor"/>
<path d="M301.569 118.772C296.6 115.951 292.706 112.057 289.885 107.088C287.065 102.119 285.654 96.5342 285.654 90.3514C285.654 84.1686 287.065 78.5648 289.885 73.5588C292.706 68.5527 296.6 64.6301 301.569 61.8189C306.538 58.9983 312.123 57.588 318.306 57.588C324.489 57.588 330.046 58.9983 334.977 61.8189C339.908 64.6395 343.803 68.5527 346.661 73.5588C349.519 78.5742 350.948 84.1686 350.948 90.3514C350.948 96.5342 349.537 102.119 346.717 107.088C343.896 112.057 340.002 115.951 335.033 118.772C330.064 121.592 324.479 123.003 318.296 123.003C312.114 123.003 306.538 121.592 301.569 118.772ZM330.513 111.608C334.108 109.498 336.929 106.574 338.965 102.857C341.001 99.14 342.019 94.9745 342.019 90.3514C342.019 85.6536 341.001 81.4414 338.965 77.7242C336.929 74.0071 334.108 71.0931 330.513 68.973C326.907 66.8623 322.835 65.7976 318.296 65.7976C313.832 65.7976 309.779 66.8529 306.146 68.973C302.503 71.0838 299.645 74.0071 297.572 77.7242C295.498 81.4414 294.462 85.6536 294.462 90.3514C294.462 94.9745 295.498 99.14 297.572 102.857C299.645 106.574 302.503 109.488 306.146 111.608C309.788 113.719 313.841 114.774 318.296 114.774C322.845 114.784 326.917 113.728 330.513 111.608ZM301.336 52.059C300.439 51.3118 299.981 50.3218 299.981 49.061C299.981 47.4172 300.729 46.0816 302.214 45.0636L316.074 35.9015C316.699 35.5092 317.446 35.3131 318.306 35.3131C319.09 35.3131 319.875 35.5092 320.65 35.9015L334.388 45.073C335.873 46.091 336.621 47.4265 336.621 49.0703C336.621 50.2471 336.191 51.2278 335.332 52.003C334.473 52.7875 333.37 53.1797 332.044 53.1797C331.185 53.1797 330.242 52.8715 329.224 52.2364L318.306 44.7181L307.388 52.2364C306.528 52.8622 305.623 53.1797 304.689 53.1797C303.344 53.1797 302.232 52.8062 301.336 52.059ZM325.469 32.4458C324.61 31.5492 324.18 30.4658 324.18 29.2143C324.18 27.9628 324.535 26.9448 325.236 26.1603L338.507 12.8887C339.367 12.0294 340.422 11.5998 341.673 11.5998C343 11.5998 344.102 12.0481 344.961 12.954C345.82 13.8506 346.25 14.9714 346.25 16.2976C346.25 17.5491 345.82 18.5671 344.961 19.3517L331.811 32.6233C331.026 33.4078 330.008 33.8001 328.757 33.8001C327.421 33.8001 326.328 33.3518 325.469 32.4458Z" fill="currentColor"/>
<path d="M409.759 60.969C414.177 63.3132 417.642 66.7409 420.154 71.2426C422.657 75.7443 423.909 81.1239 423.909 87.3908V117.922C423.909 119.173 423.479 120.229 422.62 121.088C421.76 121.947 420.696 122.377 419.454 122.377C418.118 122.377 417.025 121.947 416.166 121.088C415.307 120.229 414.877 119.173 414.877 117.922V87.3908C414.877 80.4234 412.944 75.1185 409.068 71.4761C405.192 67.8336 400.121 66.0124 393.863 66.0124C390.024 66.0124 386.559 66.7595 383.468 68.2445C380.377 69.7295 377.93 71.7843 376.127 74.4087C374.325 77.0331 373.428 79.9471 373.428 83.1599V117.922C373.428 119.258 373.017 120.332 372.195 121.153C371.373 121.975 370.299 122.386 368.964 122.386C367.628 122.386 366.535 121.975 365.676 121.153C364.817 120.332 364.387 119.258 364.387 117.922V62.7248C364.387 61.3986 364.817 60.2965 365.676 59.4373C366.535 58.578 367.628 58.1484 368.964 58.1484C370.29 58.1484 371.373 58.578 372.195 59.4373C373.017 60.2965 373.428 61.3986 373.428 62.7248V66.7222C376.015 63.8269 379.144 61.5574 382.824 59.9136C386.503 58.2698 390.491 57.448 394.806 57.448C400.345 57.448 405.332 58.6154 409.759 60.969Z" fill="currentColor"/>
<path d="M486.773 61.7255C491.705 64.5087 495.581 68.3846 498.401 73.3533C501.222 78.322 502.632 83.9818 502.632 90.3234V114.28C502.632 120.546 501.241 126.216 498.467 131.306C495.683 136.396 491.826 140.402 486.895 143.344C481.964 146.277 476.407 147.743 470.214 147.743C464.181 147.743 458.82 146.604 454.122 144.334C449.424 142.065 445.474 138.889 442.261 134.817C441.56 134.033 441.206 133.136 441.206 132.118C441.206 130.941 441.747 129.923 442.849 129.064C443.634 128.513 444.493 128.242 445.436 128.242C446.137 128.242 446.847 128.42 447.547 128.775C448.248 129.129 448.799 129.578 449.191 130.129C451.535 133.108 454.514 135.415 458.12 137.059C461.715 138.703 465.787 139.524 470.336 139.524C474.716 139.524 478.695 138.45 482.253 136.293C485.812 134.136 488.613 131.128 490.649 127.252C492.685 123.376 493.704 118.931 493.704 113.925V108.638C491.359 113.103 488.025 116.605 483.719 119.145C479.414 121.695 474.52 122.965 469.038 122.965C462.929 122.965 457.466 121.574 452.656 118.8C447.837 116.017 444.082 112.15 441.383 107.172C438.684 102.203 437.33 96.5809 437.33 90.3234C437.33 83.9818 438.74 78.322 441.56 73.3533C444.381 68.3846 448.276 64.5087 453.244 61.7255C458.213 58.9516 463.798 57.56 469.981 57.56C476.238 57.56 481.842 58.9516 486.773 61.7255ZM482.188 111.646C485.783 109.572 488.604 106.677 490.64 102.951C492.676 99.2334 493.694 95.0212 493.694 90.3234C493.694 85.6256 492.676 81.4134 490.64 77.6962C488.604 73.9791 485.783 71.0651 482.188 68.945C478.583 66.8343 474.511 65.7696 469.972 65.7696C465.348 65.7696 461.239 66.8249 457.643 68.945C454.038 71.0558 451.227 73.9791 449.191 77.6962C447.155 81.4134 446.137 85.6256 446.137 90.3234C446.137 95.0212 447.155 99.2334 449.191 102.951C451.227 106.668 454.047 109.563 457.643 111.646C461.239 113.719 465.358 114.756 469.972 114.756C474.52 114.756 478.592 113.719 482.188 111.646Z" fill="currentColor"/>
<path d="M574.977 114.634C575.761 115.494 576.154 116.596 576.154 117.922C576.154 119.173 575.687 120.229 574.743 121.088C573.8 121.947 572.632 122.377 571.222 122.377H568.757C564.61 122.377 560.883 121.378 557.596 119.379C554.308 117.38 551.74 114.681 549.9 111.272C548.06 107.863 547.145 104.015 547.145 99.7003V68.366H539.514C538.263 68.366 537.263 67.9924 536.516 67.2545C535.769 66.5074 535.405 65.5921 535.405 64.4994C535.405 63.3226 535.778 62.3699 536.516 61.6228C537.263 60.8756 538.253 60.5113 539.514 60.5113H547.145V42.2898C547.145 40.9635 547.556 39.8615 548.378 39.0022C549.199 38.143 550.273 37.7134 551.609 37.7134C552.935 37.7134 554.037 38.143 554.897 39.0022C555.756 39.8615 556.185 40.9635 556.185 42.2898V60.4927H569.457C570.709 60.4927 571.708 60.8662 572.455 61.6041C573.202 62.3512 573.566 63.3039 573.566 64.4807C573.566 65.5828 573.193 66.498 572.455 67.2359C571.708 67.983 570.709 68.3473 569.457 68.3473H556.185V99.7003C556.185 103.688 557.362 106.967 559.706 109.507C562.051 112.047 565.067 113.327 568.747 113.327H571.913C573.174 113.346 574.192 113.775 574.977 114.634Z" fill="currentColor"/>
<path d="M634.956 60.969C639.374 63.3132 642.839 66.7409 645.351 71.2426C647.854 75.7443 649.105 81.1239 649.105 87.3907V117.922C649.105 119.173 648.676 120.229 647.817 121.088C646.957 121.947 645.893 122.377 644.65 122.377C643.315 122.377 642.222 121.947 641.363 121.088C640.504 120.229 640.074 119.173 640.074 117.922V87.3907C640.074 80.4234 638.141 75.1185 634.265 71.476C630.389 67.8336 625.317 66.0124 619.06 66.0124C615.221 66.0124 611.756 66.7595 608.665 68.2445C605.573 69.7295 603.126 71.7843 601.324 74.4087C599.521 77.0331 598.625 79.9471 598.625 83.1599V117.922C598.625 119.258 598.214 120.332 597.392 121.153C596.57 121.975 595.496 122.386 594.16 122.386C592.825 122.386 591.732 121.975 590.873 121.153C590.014 120.332 589.584 119.258 589.584 117.922V35.2477C589.584 33.9215 590.014 32.8194 590.873 31.9602C591.732 31.1009 592.825 30.6713 594.16 30.6713C595.487 30.6713 596.57 31.1009 597.392 31.9602C598.214 32.8194 598.625 33.9215 598.625 35.2477V66.7222C601.212 63.8269 604.341 61.5574 608.02 59.9136C611.7 58.2698 615.688 57.448 620.003 57.448C625.542 57.448 630.538 58.6154 634.956 60.969Z" fill="currentColor"/>
<path d="M720.778 59.3813C721.637 60.2031 722.066 61.2772 722.066 62.6128V117.81C722.066 119.145 721.637 120.238 720.778 121.097C719.918 121.957 718.816 122.386 717.49 122.386C716.154 122.386 715.08 121.957 714.258 121.097C713.437 120.238 713.026 119.145 713.026 117.81V113.822C710.439 116.717 707.31 118.987 703.63 120.63C699.95 122.274 695.953 123.096 691.647 123.096C686.09 123.096 681.093 121.919 676.676 119.575C672.249 117.231 668.784 113.803 666.281 109.301C663.778 104.8 662.526 99.4202 662.526 93.1533V62.6128C662.526 61.3613 662.956 60.3059 663.815 59.4466C664.674 58.5874 665.73 58.1578 666.991 58.1578C668.317 58.1578 669.419 58.5874 670.278 59.4466C671.137 60.3059 671.567 61.3706 671.567 62.6128V93.1439C671.567 100.111 673.5 105.416 677.376 109.059C681.252 112.701 686.324 114.522 692.581 114.522C696.42 114.522 699.885 113.775 702.976 112.29C706.068 110.805 708.515 108.75 710.317 106.126C712.12 103.502 713.016 100.588 713.016 97.3748V62.6128C713.016 61.2865 713.427 60.2031 714.249 59.3813C715.071 58.5594 716.145 58.1484 717.481 58.1484C718.826 58.1484 719.918 58.5594 720.778 59.3813Z" fill="currentColor"/>
<path d="M784.754 61.9683C789.722 64.8262 793.636 68.7582 796.494 73.7736C799.352 78.789 800.781 84.346 800.781 90.4541V118.053C800.781 119.304 800.351 120.36 799.492 121.219C798.632 122.078 797.53 122.508 796.204 122.508C794.869 122.508 793.776 122.097 792.917 121.275C792.057 120.453 791.628 119.379 791.628 118.043V110.992C788.882 114.746 785.408 117.707 781.177 119.855C776.946 122.013 772.285 123.087 767.205 123.087C761.255 123.087 755.876 121.658 751.056 118.8C746.237 115.942 742.445 112.029 739.662 107.06C736.879 102.091 735.497 96.5529 735.497 90.4448C735.497 84.3367 736.926 78.7796 739.783 73.7643C742.641 68.7582 746.555 64.8169 751.523 61.959C756.492 59.1011 762.03 57.6721 768.139 57.6721C774.247 57.6814 779.785 59.1104 784.754 61.9683ZM780.233 111.702C783.829 109.591 786.668 106.668 788.751 102.951C790.825 99.2334 791.861 95.0679 791.861 90.4448C791.861 85.8217 790.825 81.6562 788.751 77.939C786.678 74.2219 783.838 71.2892 780.233 69.1318C776.628 66.9837 772.603 65.9003 768.139 65.9003C763.674 65.9003 759.621 66.9743 755.988 69.1318C752.345 71.2892 749.487 74.2219 747.414 77.939C745.341 81.6562 744.304 85.831 744.304 90.4448C744.304 95.0679 745.341 99.2334 747.414 102.951C749.487 106.668 752.345 109.582 755.988 111.702C759.63 113.812 763.684 114.868 768.139 114.868C772.603 114.868 776.638 113.812 780.233 111.702ZM751.168 52.1524C750.272 51.4052 749.814 50.4152 749.814 49.1544C749.814 47.5106 750.561 46.175 752.046 45.157L765.906 35.9949C766.532 35.6026 767.279 35.4065 768.139 35.4065C768.923 35.4065 769.708 35.6026 770.483 35.9949L784.221 45.157C785.706 46.175 786.454 47.5106 786.454 49.1544C786.454 50.3312 786.024 51.3118 785.165 52.087C784.306 52.8715 783.203 53.2638 781.877 53.2638C781.018 53.2638 780.075 52.9556 779.057 52.3205L768.139 44.8021L757.221 52.3205C756.361 52.9463 755.455 53.2638 754.521 53.2638C753.186 53.2638 752.065 52.8996 751.168 52.1524ZM776.245 31.8948L762.974 18.7446C762.189 17.9601 761.797 16.9047 761.797 15.5785C761.797 14.2522 762.227 13.1315 763.086 12.2349C763.945 11.3383 765.001 10.8806 766.252 10.8806C767.504 10.8806 768.596 11.3476 769.54 12.2909L782.69 25.5625C783.474 26.263 783.867 27.2436 783.867 28.4952C783.867 29.8307 783.437 30.9421 782.578 31.8387C781.718 32.7353 780.616 33.193 779.29 33.193C778.123 33.1836 777.105 32.754 776.245 31.8948Z" fill="currentColor"/>
<path d="M859.592 60.969C864.01 63.3132 867.475 66.7409 869.987 71.2426C872.49 75.7443 873.742 81.1239 873.742 87.3908V117.922C873.742 119.173 873.312 120.229 872.453 121.088C871.593 121.947 870.529 122.377 869.287 122.377C867.951 122.377 866.858 121.947 865.999 121.088C865.14 120.229 864.71 119.173 864.71 117.922V87.3908C864.71 80.4234 862.777 75.1185 858.901 71.4761C855.025 67.8336 849.954 66.0124 843.696 66.0124C839.857 66.0124 836.392 66.7595 833.301 68.2445C830.21 69.7295 827.763 71.7843 825.96 74.4087C824.158 77.0331 823.261 79.9471 823.261 83.1599V117.922C823.261 119.258 822.85 120.332 822.028 121.153C821.206 121.975 820.132 122.386 818.797 122.386C817.461 122.386 816.368 121.975 815.509 121.153C814.65 120.332 814.22 119.258 814.22 117.922V62.7248C814.22 61.3986 814.65 60.2965 815.509 59.4373C816.368 58.578 817.461 58.1484 818.797 58.1484C820.123 58.1484 821.206 58.578 822.028 59.4373C822.85 60.2965 823.261 61.3986 823.261 62.7248V66.7222C825.848 63.8269 828.977 61.5574 832.657 59.9136C836.336 58.2698 840.324 57.448 844.639 57.448C850.178 57.448 855.174 58.6154 859.592 60.969Z" fill="currentColor"/>
<path d="M921.925 118.688C917.068 115.83 913.258 111.917 910.475 106.948C907.691 101.979 906.309 96.4408 906.309 90.3327C906.309 84.0658 907.635 78.4527 910.297 73.4841C912.959 68.5154 916.639 64.6208 921.337 61.8002C926.034 58.9796 931.321 57.5694 937.195 57.5694C946.983 57.5694 954.931 61.3239 961.039 68.8423C961.665 69.5427 961.973 70.3646 961.973 71.3079C961.973 72.5594 961.31 73.6522 959.974 74.5955C959.265 75.0625 958.527 75.296 957.742 75.296C956.566 75.296 955.435 74.7076 954.333 73.5308C951.989 70.9437 949.402 69.0104 946.581 67.7215C943.761 66.4327 940.632 65.7882 937.186 65.7882C932.88 65.7882 929.042 66.8249 925.679 68.8983C922.308 70.9717 919.711 73.8857 917.872 77.6495C916.032 81.4041 915.116 85.6349 915.116 90.3327C915.116 94.9558 916.097 99.1213 918.049 102.838C920.001 106.556 922.747 109.47 926.268 111.59C929.789 113.7 933.824 114.756 938.363 114.756C944.63 114.756 949.673 113.075 953.512 109.703C954.53 108.844 955.585 108.414 956.678 108.414C957.621 108.414 958.48 108.732 959.265 109.358C960.357 110.301 960.908 111.356 960.908 112.533C960.908 113.551 960.516 114.41 959.732 115.12C954.091 120.369 946.964 122.984 938.353 122.984C932.264 122.975 926.782 121.546 921.925 118.688Z" fill="currentColor"/>
<path d="M1020.84 60.969C1025.27 63.3132 1028.73 66.7409 1031.24 71.2426C1033.74 75.7443 1035 81.1239 1035 87.3907V117.922C1035 119.173 1034.57 120.229 1033.71 121.088C1032.85 121.947 1031.79 122.377 1030.54 122.377C1029.2 122.377 1028.11 121.947 1027.25 121.088C1026.39 120.229 1025.96 119.173 1025.96 117.922V87.3907C1025.96 80.4234 1024.02 75.1185 1020.14 71.476C1016.26 67.8336 1011.19 66.0124 1004.94 66.0124C1001.1 66.0124 997.632 66.7595 994.54 68.2445C991.449 69.7295 989.002 71.7843 987.199 74.4087C985.397 77.0331 984.5 79.9471 984.5 83.1599V117.922C984.5 119.258 984.089 120.332 983.267 121.153C982.445 121.975 981.371 122.386 980.036 122.386C978.7 122.386 977.608 121.975 976.748 121.153C975.889 120.332 975.459 119.258 975.459 117.922V35.2477C975.459 33.9215 975.889 32.8194 976.748 31.9602C977.608 31.1009 978.7 30.6713 980.036 30.6713C981.362 30.6713 982.445 31.1009 983.267 31.9602C984.089 32.8194 984.5 33.9215 984.5 35.2477V66.7222C987.087 63.8269 990.216 61.5574 993.896 59.9136C997.576 58.2698 1001.56 57.448 1005.88 57.448C1011.43 57.448 1016.41 58.6154 1020.84 60.969Z" fill="currentColor"/>
<path d="M1097.68 61.8469C1102.65 64.7048 1106.56 68.6368 1109.42 73.6522C1112.28 78.6676 1113.7 84.2246 1113.7 90.3327V117.931C1113.7 119.183 1113.27 120.238 1112.42 121.097C1111.56 121.957 1110.45 122.386 1109.13 122.386C1107.79 122.386 1106.7 121.975 1105.84 121.153C1104.98 120.332 1104.55 119.258 1104.55 117.922V110.871C1101.81 114.625 1098.33 117.586 1094.1 119.734C1089.87 121.891 1085.21 122.965 1080.13 122.965C1074.18 122.965 1068.8 121.536 1063.98 118.678C1059.17 115.821 1055.37 111.907 1052.59 106.939C1049.8 101.97 1048.41 96.4315 1048.41 90.3234C1048.41 84.2153 1049.84 78.6582 1052.7 73.6428C1055.56 68.6368 1059.47 64.6955 1064.44 61.8376C1069.41 58.9797 1074.94 57.5507 1081.05 57.5507C1087.16 57.5507 1092.7 58.989 1097.68 61.8469ZM1093.16 111.58C1096.75 109.47 1099.59 106.546 1101.68 102.829C1103.75 99.112 1104.79 94.9465 1104.79 90.3234C1104.79 85.7003 1103.75 81.5348 1101.68 77.8177C1099.6 74.1005 1096.76 71.1678 1093.16 69.0104C1089.55 66.8623 1085.53 65.7789 1081.06 65.7789C1076.6 65.7789 1072.54 66.8529 1068.91 69.0104C1065.27 71.1678 1062.41 74.1005 1060.34 77.8177C1058.26 81.5348 1057.23 85.7096 1057.23 90.3234C1057.23 94.9465 1058.26 99.112 1060.34 102.829C1062.41 106.546 1065.27 109.46 1068.91 111.58C1072.55 113.691 1076.61 114.746 1081.06 114.746C1085.52 114.756 1089.55 113.7 1093.16 111.58Z" fill="currentColor"/>
<path d="M1179.48 61.436C1179.48 62.1364 1179.32 62.8462 1179.02 63.5467L1140.97 147.164C1140.27 148.967 1139.13 149.863 1137.56 149.863C1136.77 149.863 1136.07 149.705 1135.45 149.396C1133.64 148.696 1132.75 147.519 1132.75 145.875C1132.75 145.175 1132.91 144.465 1133.21 143.765L1144.84 118.043V117.922L1118.65 63.6681C1118.34 63.0424 1118.19 62.3419 1118.19 61.5574C1118.19 59.9136 1119.05 58.7368 1120.77 58.0363C1121.4 57.7281 1122.1 57.5694 1122.89 57.5694C1124.53 57.5694 1125.71 58.3913 1126.41 60.035L1149.31 108.302L1171.15 60.1564C1171.94 58.438 1173.1 57.5694 1174.67 57.5694C1175.37 57.5694 1176.08 57.7281 1176.78 58.0363C1178.58 58.7368 1179.48 59.8669 1179.48 61.436Z" fill="currentColor"/>
<path d="M80.5075 6.70584C121.2 6.70584 154.309 39.8148 154.309 80.5074C154.309 117.203 127.392 147.734 92.2567 153.375C91.3601 153.515 90.5475 152.815 90.5475 151.899L90.5289 132.268L83.851 132.735L83.8417 157.363C83.8417 159.324 85.5135 160.893 87.4655 160.725C128.672 157.195 161.015 122.629 161.015 80.5074C161.015 36.0416 124.964 0 80.5075 0C36.0509 0 0 36.0509 0 80.5074C0 122.62 32.3244 157.176 73.5214 160.716C75.4734 160.884 77.1359 159.324 77.1452 157.372C77.1452 155.626 75.8003 154.178 74.0631 154.029C36.3685 150.751 6.70584 119.033 6.70584 80.5074C6.70584 39.8148 39.8148 6.70584 80.5075 6.70584Z" fill="currentColor"/>
<path d="M37.0408 94.5542C37.0408 94.5542 36.4618 132.959 77.1731 132.744C77.1731 132.744 78.6955 93.5175 37.0408 94.5542Z" fill="currentColor"/>
<path d="M123.983 94.5542C123.983 94.5542 124.562 132.959 83.8511 132.744C83.8511 132.744 82.3287 93.5175 123.983 94.5542Z" fill="currentColor"/>
<path d="M50.3218 66.3299C50.3218 66.3299 44.5313 96.5062 76.6315 101.989C76.6315 101.989 83.2813 71.2986 50.3218 66.3299Z" fill="currentColor"/>
<path d="M84.2713 101.97C84.2713 101.97 78.4807 71.7936 110.581 66.3112C110.581 66.3112 117.231 97.0012 84.2713 101.97Z" fill="currentColor"/>
<path d="M80.5354 37.2837C80.5354 37.2837 57.1304 57.9616 80.5354 81.264C80.5354 81.2546 102.633 61.1184 80.5354 37.2837Z" fill="currentColor"/>
</svg>
