<svg width="1200" height="452" viewBox="0 0 1200 452" fill="none" xmlns="http://www.w3.org/2000/svg">
<g clip-path="url(#clip0)">
<path d="M14.9988 414.423C9.40811 412.361 4.90006 409.477 1.47468 405.753C0.485339 404.577 0 403.447 0 402.365C0 400.703 0.784009 399.228 2.35203 397.95C3.52804 397.063 4.75072 396.624 6.0294 396.624C7.69075 396.624 9.11877 397.315 10.2948 398.687C12.6468 401.431 15.7548 403.541 19.6282 405.006C23.5016 406.471 27.7856 407.209 32.4897 407.209C39.3498 407.209 44.4925 406.033 47.9272 403.681C51.3619 401.329 53.1259 398.239 53.2193 394.422C53.2193 390.894 51.5019 387.954 48.0765 385.602C44.6418 383.25 39.2004 381.486 31.7524 380.31C22.1482 378.742 14.9615 376.026 10.2108 372.152C5.45073 368.279 3.08003 363.603 3.08003 358.115C3.08003 350.956 5.85207 345.421 11.3868 341.501C16.9215 337.581 23.8563 335.621 32.191 335.621C38.6591 335.621 44.2965 336.722 49.1032 338.925C53.9006 341.128 57.774 344.199 60.7233 348.119C61.5074 349.397 61.8994 350.517 61.8994 351.497C61.8994 353.168 61.1154 354.484 59.5473 355.464C58.8567 355.959 57.9327 356.201 56.7566 356.201C54.694 356.201 52.9859 355.464 51.6139 353.999C46.8072 348.511 40.2458 345.767 31.911 345.767C26.5163 345.767 22.2043 346.868 18.9749 349.071C15.7362 351.273 14.1215 354.045 14.1215 357.377C14.1215 360.905 15.6428 363.724 18.6762 365.833C21.7096 367.943 27.1043 369.632 34.8511 370.911C45.3418 372.675 52.8366 375.54 57.3446 379.516C61.8527 383.483 64.1114 388.411 64.1114 394.291C64.1114 398.799 62.7674 402.822 60.07 406.35C57.3726 409.878 53.6206 412.622 48.8232 414.582C44.0165 416.542 38.5751 417.522 32.499 417.522C26.4136 417.513 20.5896 416.486 14.9988 414.423Z" fill="currentColor"/>
<path d="M100.848 412.258C94.6225 408.73 89.7504 403.858 86.2224 397.632C82.6943 391.407 80.9303 384.426 80.9303 376.679C80.9303 368.932 82.6943 361.923 86.2224 355.651C89.7504 349.379 94.6225 344.479 100.848 340.95C107.073 337.422 114.055 335.658 121.801 335.658C129.539 335.658 136.502 337.422 142.68 340.95C148.859 344.479 153.731 349.379 157.306 355.651C160.881 361.923 162.673 368.932 162.673 376.679C162.673 384.426 160.909 391.407 157.38 397.632C153.852 403.858 148.971 408.73 142.755 412.258C136.53 415.786 129.548 417.55 121.801 417.55C114.055 417.55 107.073 415.786 100.848 412.258ZM137.09 403.288C141.598 400.638 145.126 396.988 147.674 392.331C150.222 387.674 151.5 382.456 151.5 376.67C151.5 370.789 150.222 365.516 147.674 360.859C145.126 356.201 141.598 352.552 137.09 349.901C132.582 347.251 127.485 345.935 121.801 345.935C116.211 345.935 111.143 347.26 106.579 349.901C102.024 352.552 98.4398 356.201 95.8451 360.859C93.2504 365.516 91.9438 370.78 91.9438 376.67C91.9438 382.456 93.2411 387.674 95.8451 392.331C98.4398 396.988 102.024 400.638 106.579 403.288C111.133 405.939 116.211 407.255 121.801 407.255C127.485 407.255 132.582 405.93 137.09 403.288ZM100.549 328.733C99.4198 327.8 98.8598 326.549 98.8598 324.981C98.8598 322.918 99.7932 321.257 101.651 319.978L119.001 308.507C119.785 308.022 120.719 307.77 121.792 307.77C122.772 307.77 123.752 308.013 124.732 308.507L141.934 319.978C143.791 321.257 144.724 322.918 144.724 324.981C144.724 326.446 144.183 327.678 143.11 328.658C142.027 329.638 140.655 330.133 138.994 330.133C137.911 330.133 136.735 329.741 135.466 328.957L121.792 319.549L108.119 328.957C107.036 329.741 105.916 330.133 104.74 330.133C103.079 330.124 101.679 329.666 100.549 328.733ZM130.771 304.177C129.688 303.047 129.156 301.703 129.156 300.135C129.156 298.567 129.595 297.298 130.482 296.309L147.095 279.695C148.168 278.622 149.494 278.08 151.062 278.08C152.732 278.08 154.095 278.65 155.178 279.77C156.251 280.899 156.792 282.299 156.792 283.96C156.792 285.529 156.251 286.807 155.178 287.787L138.714 304.401C137.734 305.381 136.455 305.875 134.887 305.875C133.216 305.866 131.844 305.306 130.771 304.177Z" fill="currentColor"/>
<path d="M236.304 339.877C241.839 342.817 246.179 347.111 249.315 352.739C252.451 358.376 254.019 365.115 254.019 372.955V411.185C254.019 412.753 253.478 414.078 252.404 415.151C251.321 416.234 250.005 416.766 248.437 416.766C246.767 416.766 245.395 416.225 244.321 415.151C243.239 414.078 242.707 412.753 242.707 411.185V372.964C242.707 364.237 240.28 357.601 235.427 353.037C230.573 348.483 224.227 346.196 216.386 346.196C211.58 346.196 207.249 347.129 203.376 348.987C199.502 350.853 196.441 353.42 194.182 356.705C191.923 359.991 190.803 363.64 190.803 367.663V411.185C190.803 412.855 190.29 414.199 189.263 415.226C188.237 416.253 186.883 416.766 185.222 416.766C183.551 416.766 182.179 416.253 181.106 415.226C180.023 414.199 179.491 412.846 179.491 411.185V342.08C179.491 340.418 180.033 339.046 181.106 337.964C182.179 336.89 183.551 336.349 185.222 336.349C186.883 336.349 188.237 336.89 189.263 337.964C190.29 339.046 190.803 340.418 190.803 342.08V347.083C194.042 343.461 197.962 340.614 202.564 338.552C207.165 336.489 212.168 335.462 217.562 335.462C224.516 335.462 230.76 336.937 236.304 339.877Z" fill="currentColor"/>
<path d="M332.718 340.829C338.897 344.311 343.741 349.164 347.278 355.389C350.807 361.615 352.571 368.699 352.571 376.632V406.63C352.571 414.47 350.825 421.573 347.353 427.947C343.872 434.322 339.046 439.344 332.868 443.021C326.689 446.698 319.736 448.537 311.989 448.537C304.438 448.537 297.727 447.118 291.847 444.272C285.967 441.425 281.011 437.458 276.998 432.362C276.111 431.382 275.672 430.253 275.672 428.983C275.672 427.509 276.354 426.239 277.735 425.157C278.715 424.466 279.798 424.13 280.974 424.13C281.86 424.13 282.738 424.354 283.624 424.793C284.511 425.231 285.192 425.801 285.687 426.482C288.627 430.206 292.351 433.1 296.859 435.153C301.367 437.216 306.463 438.242 312.147 438.242C317.636 438.242 322.61 436.889 327.072 434.201C331.533 431.503 335.033 427.733 337.581 422.879C340.129 418.026 341.408 412.463 341.408 406.191V399.574C338.468 405.165 334.296 409.551 328.91 412.734C323.516 415.917 317.393 417.513 310.533 417.513C302.889 417.513 296.047 415.777 290.018 412.295C283.988 408.814 279.284 403.961 275.906 397.735C272.527 391.51 270.838 384.482 270.838 376.632C270.838 368.689 272.602 361.615 276.13 355.389C279.658 349.164 284.53 344.311 290.755 340.829C296.981 337.348 303.962 335.612 311.709 335.612C319.54 335.612 326.549 337.357 332.718 340.829ZM326.988 403.326C331.496 400.731 335.024 397.1 337.572 392.443C340.12 387.786 341.398 382.522 341.398 376.642C341.398 370.761 340.12 365.488 337.572 360.831C335.024 356.173 331.496 352.524 326.988 349.873C322.48 347.223 317.383 345.907 311.699 345.907C305.913 345.907 300.77 347.232 296.262 349.873C291.754 352.524 288.226 356.173 285.678 360.831C283.13 365.488 281.851 370.752 281.851 376.642C281.851 382.522 283.12 387.795 285.678 392.443C288.226 397.1 291.754 400.731 296.262 403.326C300.77 405.921 305.913 407.218 311.699 407.218C317.383 407.218 322.48 405.921 326.988 403.326Z" fill="currentColor"/>
<path d="M443.161 407.069C444.141 408.151 444.626 409.523 444.626 411.185C444.626 412.753 444.038 414.078 442.862 415.151C441.686 416.234 440.212 416.766 438.448 416.766H435.358C430.159 416.766 425.502 415.515 421.386 413.014C417.27 410.513 414.059 407.134 411.754 402.869C409.449 398.603 408.301 393.778 408.301 388.383V349.127H398.743C397.175 349.127 395.924 348.66 394.991 347.727C394.058 346.793 393.591 345.645 393.591 344.273C393.591 342.808 394.058 341.604 394.991 340.67C395.924 339.737 397.175 339.27 398.743 339.27H408.301V316.497C408.301 314.836 408.814 313.464 409.841 312.381C410.867 311.307 412.211 310.766 413.882 310.766C415.543 310.766 416.915 311.307 417.998 312.381C419.071 313.464 419.613 314.836 419.613 316.497V339.289H436.226C437.794 339.289 439.045 339.756 439.978 340.689C440.912 341.622 441.378 342.817 441.378 344.292C441.378 345.664 440.912 346.821 439.978 347.745C439.045 348.679 437.794 349.145 436.226 349.145H419.613V388.402C419.613 393.404 421.078 397.492 424.027 400.675C426.967 403.858 430.738 405.454 435.349 405.454H439.316C440.902 405.454 442.172 405.995 443.161 407.069Z" fill="currentColor"/>
<path d="M518.258 339.877C523.793 342.817 528.133 347.111 531.269 352.739C534.405 358.376 535.973 365.115 535.973 372.955V411.185C535.973 412.753 535.431 414.078 534.358 415.151C533.275 416.234 531.959 416.766 530.391 416.766C528.721 416.766 527.349 416.225 526.275 415.151C525.193 414.078 524.661 412.753 524.661 411.185V372.964C524.661 364.237 522.234 357.601 517.381 353.037C512.527 348.473 506.18 346.196 498.34 346.196C493.534 346.196 489.203 347.129 485.33 348.987C481.456 350.853 478.395 353.42 476.136 356.705C473.877 359.991 472.757 363.64 472.757 367.663V411.185C472.757 412.855 472.244 414.199 471.217 415.226C470.191 416.253 468.837 416.766 467.176 416.766C465.505 416.766 464.133 416.253 463.06 415.226C461.977 414.199 461.445 412.846 461.445 411.185V307.677C461.445 306.006 461.987 304.643 463.06 303.561C464.133 302.487 465.505 301.946 467.176 301.946C468.837 301.946 470.191 302.487 471.217 303.561C472.244 304.643 472.757 306.015 472.757 307.677V347.083C475.996 343.461 479.916 340.614 484.518 338.552C489.119 336.489 494.122 335.462 499.516 335.462C506.47 335.462 512.714 336.937 518.258 339.877Z" fill="currentColor"/>
<path d="M625.704 337.889C626.778 338.916 627.319 340.269 627.319 341.931V411.035C627.319 412.706 626.778 414.078 625.704 415.151C624.622 416.234 623.25 416.766 621.588 416.766C619.918 416.766 618.574 416.225 617.547 415.151C616.52 414.078 616.007 412.706 616.007 411.035V406.033C612.768 409.663 608.848 412.501 604.247 414.563C599.636 416.626 594.643 417.653 589.248 417.653C582.285 417.653 576.041 416.178 570.497 413.238C564.962 410.298 560.622 406.014 557.486 400.376C554.35 394.739 552.782 388 552.782 380.16V341.931C552.782 340.363 553.324 339.037 554.397 337.964C555.47 336.89 556.796 336.349 558.364 336.349C560.025 336.349 561.397 336.89 562.48 337.964C563.553 339.046 564.094 340.363 564.094 341.931V380.16C564.094 388.887 566.521 395.523 571.374 400.087C576.228 404.642 582.575 406.919 590.415 406.919C595.221 406.919 599.552 405.986 603.425 404.129C607.299 402.271 610.36 399.695 612.619 396.41C614.868 393.124 615.998 389.475 615.998 385.452V341.931C615.998 340.26 616.511 338.916 617.538 337.889C618.564 336.862 619.908 336.349 621.579 336.349C623.25 336.349 624.622 336.862 625.704 337.889Z" fill="currentColor"/>
<path d="M705.804 341.128C712.029 344.712 716.929 349.631 720.504 355.903C724.079 362.175 725.871 369.137 725.871 376.782V411.334C725.871 412.902 725.329 414.227 724.256 415.301C723.173 416.383 721.801 416.915 720.14 416.915C718.469 416.915 717.097 416.402 716.024 415.375C714.941 414.349 714.409 412.995 714.409 411.334V402.514C710.975 407.218 706.616 410.923 701.324 413.611C696.032 416.309 690.198 417.653 683.824 417.653C676.375 417.653 669.637 415.87 663.607 412.286C657.578 408.711 652.827 403.811 649.346 397.586C645.864 391.36 644.128 384.426 644.128 376.782C644.128 369.137 645.911 362.175 649.495 355.903C653.07 349.631 657.97 344.703 664.195 341.128C670.421 337.553 677.355 335.761 685 335.761C692.644 335.761 699.578 337.553 705.804 341.128ZM700.138 403.4C704.646 400.75 708.202 397.1 710.797 392.443C713.392 387.786 714.699 382.568 714.699 376.782C714.699 370.995 713.401 365.777 710.797 361.12C708.202 356.463 704.646 352.785 700.138 350.097C695.63 347.4 690.581 346.056 684.99 346.056C679.399 346.056 674.331 347.409 669.767 350.097C665.213 352.795 661.629 356.472 659.034 361.12C656.439 365.777 655.133 370.995 655.133 376.782C655.133 382.568 656.43 387.786 659.034 392.443C661.629 397.1 665.213 400.75 669.767 403.4C674.322 406.051 679.399 407.367 684.99 407.367C690.581 407.367 695.63 406.042 700.138 403.4ZM663.747 328.845C662.618 327.912 662.058 326.661 662.058 325.093C662.058 323.03 662.991 321.369 664.849 320.09L682.2 308.619C682.984 308.134 683.917 307.882 684.99 307.882C685.97 307.882 686.95 308.125 687.93 308.619L705.132 320.09C706.989 321.369 707.922 323.03 707.922 325.093C707.922 326.558 707.381 327.79 706.308 328.77C705.225 329.75 703.853 330.245 702.192 330.245C701.109 330.245 699.933 329.853 698.664 329.069L684.99 319.661L671.317 329.069C670.234 329.853 669.114 330.245 667.938 330.245C666.267 330.236 664.877 329.769 663.747 328.845ZM695.145 303.477L678.531 287.013C677.551 286.033 677.057 284.707 677.057 283.046C677.057 281.375 677.598 279.984 678.672 278.855C679.745 277.726 681.07 277.166 682.638 277.166C684.206 277.166 685.578 277.754 686.754 278.93L703.218 295.543C704.198 296.43 704.693 297.653 704.693 299.221C704.693 300.891 704.152 302.282 703.078 303.411C701.996 304.541 700.624 305.101 698.962 305.101C697.497 305.091 696.218 304.559 695.145 303.477Z" fill="currentColor"/>
<path d="M799.502 339.877C805.037 342.817 809.377 347.111 812.513 352.739C815.649 358.376 817.217 365.115 817.217 372.955V411.185C817.217 412.753 816.676 414.078 815.602 415.151C814.52 416.234 813.204 416.766 811.636 416.766C809.965 416.766 808.593 416.225 807.52 415.151C806.437 414.078 805.905 412.753 805.905 411.185V372.964C805.905 364.237 803.478 357.601 798.625 353.037C793.772 348.473 787.425 346.196 779.585 346.196C774.778 346.196 770.447 347.129 766.574 348.987C762.701 350.853 759.639 353.42 757.38 356.705C755.122 359.991 754.002 363.64 754.002 367.663V411.185C754.002 412.855 753.488 414.199 752.462 415.226C751.435 416.253 750.082 416.766 748.42 416.766C746.75 416.766 745.378 416.253 744.304 415.226C743.222 414.199 742.69 412.846 742.69 411.185V342.08C742.69 340.418 743.231 339.046 744.304 337.964C745.378 336.89 746.75 336.349 748.42 336.349C750.082 336.349 751.435 336.89 752.462 337.964C753.488 339.046 754.002 340.418 754.002 342.08V347.083C757.24 343.461 761.161 340.614 765.762 338.552C770.363 336.489 775.366 335.462 780.761 335.462C787.714 335.462 793.958 336.937 799.502 339.877Z" fill="currentColor"/>
<path d="M877.539 412.146C871.463 408.571 866.684 403.671 863.203 397.446C859.722 391.22 857.986 384.286 857.986 376.642C857.986 368.801 859.647 361.764 862.988 355.539C866.32 349.313 870.931 344.441 876.811 340.913C882.691 337.385 889.309 335.621 896.663 335.621C908.918 335.621 918.868 340.325 926.512 349.733C927.296 350.62 927.688 351.647 927.688 352.823C927.688 354.391 926.857 355.763 925.186 356.939C924.3 357.527 923.376 357.825 922.396 357.825C920.921 357.825 919.502 357.088 918.13 355.623C915.19 352.384 911.951 349.957 908.423 348.343C904.895 346.728 900.975 345.916 896.663 345.916C891.269 345.916 886.471 347.213 882.253 349.817C878.034 352.412 874.776 356.071 872.471 360.775C870.166 365.479 869.018 370.771 869.018 376.651C869.018 382.438 870.24 387.655 872.695 392.312C875.14 396.97 878.575 400.619 882.99 403.27C887.405 405.921 892.445 407.237 898.138 407.237C905.978 407.237 912.297 405.127 917.103 400.918C918.373 399.844 919.698 399.303 921.07 399.303C922.246 399.303 923.329 399.695 924.3 400.479C925.672 401.655 926.362 402.98 926.362 404.446C926.362 405.725 925.868 406.798 924.897 407.685C917.841 414.255 908.918 417.531 898.138 417.531C890.475 417.513 883.615 415.721 877.539 412.146Z" fill="currentColor"/>
<path d="M1001.38 339.877C1006.91 342.817 1011.25 347.111 1014.39 352.739C1017.52 358.376 1019.09 365.115 1019.09 372.955V411.185C1019.09 412.753 1018.55 414.078 1017.48 415.151C1016.39 416.234 1015.08 416.766 1013.51 416.766C1011.84 416.766 1010.47 416.225 1009.39 415.151C1008.31 414.078 1007.78 412.753 1007.78 411.185V372.964C1007.78 364.237 1005.35 357.601 1000.5 353.037C995.644 348.473 989.298 346.196 981.458 346.196C976.651 346.196 972.32 347.129 968.447 348.987C964.573 350.853 961.512 353.42 959.253 356.705C956.995 359.991 955.875 363.64 955.875 367.663V411.185C955.875 412.855 955.361 414.199 954.325 415.226C953.299 416.253 951.945 416.766 950.284 416.766C948.613 416.766 947.241 416.253 946.168 415.226C945.085 414.199 944.553 412.846 944.553 411.185V307.677C944.553 306.006 945.085 304.643 946.168 303.561C947.241 302.487 948.613 301.946 950.284 301.946C951.945 301.946 953.299 302.487 954.325 303.561C955.352 304.643 955.875 306.015 955.875 307.677V347.083C959.113 343.461 963.024 340.614 967.635 338.552C972.245 336.489 977.239 335.462 982.634 335.462C989.587 335.462 995.84 336.937 1001.38 339.877Z" fill="currentColor"/>
<path d="M1097.57 340.978C1103.8 344.563 1108.7 349.481 1112.27 355.753C1115.85 362.025 1117.64 368.988 1117.64 376.632V411.185C1117.64 412.753 1117.1 414.078 1116.03 415.151C1114.94 416.234 1113.57 416.766 1111.91 416.766C1110.24 416.766 1108.87 416.253 1107.8 415.226C1106.71 414.199 1106.18 412.846 1106.18 411.185V402.365C1102.75 407.069 1098.39 410.774 1093.09 413.462C1087.8 416.159 1081.97 417.503 1075.59 417.503C1068.15 417.503 1061.41 415.721 1055.38 412.137C1049.35 408.562 1044.6 403.662 1041.12 397.436C1037.64 391.211 1035.9 384.276 1035.9 376.632C1035.9 368.988 1037.69 362.025 1041.27 355.753C1044.84 349.481 1049.74 344.553 1055.97 340.978C1062.19 337.404 1069.13 335.612 1076.77 335.612C1084.41 335.612 1091.35 337.404 1097.57 340.978ZM1091.92 403.251C1096.43 400.6 1099.98 396.951 1102.58 392.294C1105.17 387.636 1106.48 382.419 1106.48 376.632C1106.48 370.845 1105.18 365.628 1102.58 360.971C1099.98 356.313 1096.43 352.636 1091.92 349.948C1087.41 347.251 1082.36 345.907 1076.77 345.907C1071.18 345.907 1066.11 347.26 1061.55 349.948C1056.99 352.645 1053.41 356.323 1050.81 360.971C1048.22 365.628 1046.91 370.845 1046.91 376.632C1046.91 382.419 1048.21 387.636 1050.81 392.294C1053.41 396.951 1056.99 400.6 1061.55 403.251C1066.1 405.902 1071.18 407.218 1076.77 407.218C1082.36 407.218 1087.41 405.893 1091.92 403.251Z" fill="currentColor"/>
<path d="M1200 340.465C1200 341.352 1199.8 342.229 1199.41 343.116L1151.77 447.809C1150.9 450.058 1149.47 451.188 1147.51 451.188C1146.53 451.188 1145.64 450.992 1144.86 450.6C1142.6 449.713 1141.48 448.248 1141.48 446.185C1141.48 445.298 1141.68 444.421 1142.07 443.534L1156.63 411.334V411.185L1123.84 343.256C1123.45 342.472 1123.25 341.585 1123.25 340.605C1123.25 338.542 1124.32 337.077 1126.49 336.19C1127.27 335.798 1128.15 335.602 1129.14 335.602C1131.2 335.602 1132.67 336.629 1133.56 338.692L1162.23 399.126L1189.57 338.841C1190.55 336.685 1192.02 335.602 1193.99 335.602C1194.87 335.602 1195.75 335.798 1196.64 336.19C1198.87 337.086 1200 338.505 1200 340.465Z" fill="currentColor"/>
<path d="M611.2 8.40009C662.151 8.40009 703.601 49.8499 703.601 100.801C703.601 146.74 669.898 184.961 625.919 192.035C624.789 192.213 623.772 191.326 623.772 190.187L623.744 165.603L615.381 166.191L615.372 197.02C615.372 199.474 617.463 201.434 619.917 201.229C671.503 196.814 712.001 153.535 712.001 100.801C712.001 45.1272 666.874 0 611.2 0C555.526 0 510.399 45.1272 510.399 100.801C510.399 153.526 550.869 196.786 602.445 201.229C604.881 201.434 606.972 199.484 606.981 197.038C606.981 194.854 605.301 193.044 603.127 192.857C555.946 188.75 518.808 149.036 518.808 100.81C518.799 49.8499 560.249 8.40009 611.2 8.40009Z" fill="currentColor"/>
<path d="M556.777 118.385C556.777 118.385 556.049 166.471 607.019 166.201C607.019 166.191 608.923 117.088 556.777 118.385Z" fill="currentColor"/>
<path d="M665.623 118.385C665.623 118.385 666.351 166.471 615.381 166.201C615.381 166.191 613.477 117.088 665.623 118.385Z" fill="currentColor"/>
<path d="M573.4 83.0396C573.4 83.0396 566.148 120.821 606.337 127.691C606.337 127.691 614.663 89.265 573.4 83.0396Z" fill="currentColor"/>
<path d="M615.913 127.672C615.913 127.672 608.661 89.8903 648.851 83.0209C648.851 83.0209 657.177 121.447 615.913 127.672Z" fill="currentColor"/>
<path d="M611.228 46.6765C611.228 46.6765 581.931 72.5675 611.228 101.734C611.228 101.734 638.893 76.5249 611.228 46.6765Z" fill="currentColor"/>
</g>
<defs>
<clipPath id="clip0">
<rect width="1200" height="451.188" fill="white"/>
</clipPath>
</defs>
</svg>
