<svg width="24" height="24" viewBox="0 0 24 24" fill="none" xmlns="http://www.w3.org/2000/svg">
<g clip-path="url(#clip0)">
<path d="M20.4742 18.0079H7.18639C6.63731 18.0079 6.19804 17.6013 6.08822 17.0838L4.6606 8.32307C4.62399 7.99039 4.69721 7.6577 4.91684 7.43591C5.13647 7.17716 5.42932 7.0293 5.75877 7.0293H21.9019C22.2313 7.0293 22.5242 7.17716 22.7438 7.43591C22.9634 7.69467 23.0366 8.02735 23 8.32307L21.5724 17.0838C21.4626 17.6382 21.0233 18.0079 20.4742 18.0079ZM8.10153 15.79H19.5225L20.5841 9.2472H7.03997L8.10153 15.79Z" fill="#2D302D"/>
<path d="M5.75874 9.24708C5.35607 9.24708 4.95341 8.98833 4.77038 8.58171L3.23294 5.2179H2.09817C1.47587 5.2179 1 4.73735 1 4.10895C1 3.48054 1.47587 3 2.09817 3H3.92845C4.36772 3 4.73378 3.25875 4.91681 3.66537L6.71048 7.69455C6.96672 8.24903 6.71048 8.9144 6.1614 9.17315C6.05158 9.21012 5.90516 9.24708 5.75874 9.24708Z" fill="#2D302D"/>
<path d="M8.90685 22.0368C9.71552 22.0368 10.3711 21.3748 10.3711 20.5582C10.3711 19.7416 9.71552 19.0796 8.90685 19.0796C8.09818 19.0796 7.44263 19.7416 7.44263 20.5582C7.44263 21.3748 8.09818 22.0368 8.90685 22.0368Z" fill="#2D302D"/>
<path d="M18.3143 22.0368C19.123 22.0368 19.7786 21.3748 19.7786 20.5582C19.7786 19.7416 19.123 19.0796 18.3143 19.0796C17.5057 19.0796 16.8501 19.7416 16.8501 20.5582C16.8501 21.3748 17.5057 22.0368 18.3143 22.0368Z" fill="#2D302D"/>
</g>
<defs>
<clipPath id="clip0">
<rect width="22" height="19" fill="white" transform="translate(1 3)"/>
</clipPath>
</defs>
</svg>
