<svg width="24" height="24" viewBox="0 0 24 24" fill="none" xmlns="http://www.w3.org/2000/svg">
<path fill-rule="evenodd" clip-rule="evenodd" d="M12 20.5C16.6944 20.5 20.5 16.6944 20.5 12C20.5 7.30558 16.6944 3.5 12 3.5C7.30558 3.5 3.5 7.30558 3.5 12C3.5 16.6944 7.30558 20.5 12 20.5ZM12 23C18.0751 23 23 18.0751 23 12C23 5.92487 18.0751 1 12 1C5.92487 1 1 5.92487 1 12C1 18.0751 5.92487 23 12 23Z" fill="currentColor"/>
<path fill-rule="evenodd" clip-rule="evenodd" d="M6.77618 12.3972C7.38508 12.2736 7.97889 12.667 8.10249 13.2759C8.46143 15.0442 10.0266 16.3747 11.9 16.3747C13.7733 16.3747 15.3385 15.0442 15.6974 13.2759C15.821 12.667 16.4148 12.2736 17.0237 12.3972C17.6326 12.5208 18.0261 13.1146 17.9025 13.7235C17.3349 16.5197 14.8645 18.6247 11.9 18.6247C8.93543 18.6247 6.46506 16.5197 5.89746 13.7235C5.77386 13.1146 6.16728 12.5208 6.77618 12.3972Z" fill="currentColor"/>
<circle cx="8.5" cy="9" r="1.5" fill="currentColor"/>
<circle cx="15.5" cy="9" r="1.5" fill="currentColor"/>
</svg>
