<svg width="24" height="24" viewBox="0 0 24 24" fill="none" xmlns="http://www.w3.org/2000/svg">
<g clip-path="url(#clip0)">
<path d="M18.1068 21.9999C17.9229 21.9999 17.739 21.9632 17.5918 21.8898L11.9998 18.9527L6.40785 21.8898C6.03995 22.0733 5.59848 22.0366 5.23059 21.8163C4.89949 21.5593 4.71554 21.1555 4.78912 20.7517L5.85601 14.5104L1.33092 10.1048C1.03661 9.8111 0.926243 9.37054 1.03661 8.96669C1.18377 8.56284 1.51487 8.26914 1.91955 8.23242L8.17373 7.31459L10.9697 1.66075C11.1537 1.29361 11.5216 1.03662 11.963 1.03662C12.4045 1.03662 12.7724 1.2569 12.9563 1.66075L15.7523 7.31459L22.0065 8.23242C22.4112 8.30585 22.7791 8.59956 22.8895 8.96669C23.0366 9.37054 22.9262 9.8111 22.5951 10.1048L18.0701 14.5104L19.1369 20.7517C19.2105 21.1555 19.0266 21.5961 18.6955 21.8163C18.5851 21.9265 18.3644 21.9999 18.1068 21.9999ZM11.9998 16.5663C12.1838 16.5663 12.3677 16.6031 12.5149 16.6765L16.6353 18.8426L15.8627 14.2534C15.7891 13.8863 15.9363 13.5191 16.1938 13.2621L19.5416 9.99466L14.9062 9.33382C14.5383 9.29711 14.244 9.04012 14.06 8.74641L11.9998 4.59781L9.93962 8.78312C9.79246 9.11354 9.46136 9.33382 9.09347 9.37054L4.45801 10.0314L7.80584 13.2989C8.06337 13.5559 8.17373 13.923 8.13694 14.2901L7.36437 18.8793L11.4848 16.7132C11.6319 16.6031 11.8159 16.5663 11.9998 16.5663Z" fill="currentColor"/>
</g>
<defs>
<clipPath id="clip0">
<rect width="22" height="21" fill="white" transform="translate(1 1)"/>
</clipPath>
</defs>
</svg>
