<svg width="24" height="24" viewBox="0 0 24 24" fill="none" xmlns="http://www.w3.org/2000/svg">
<path d="M12.0184 16.5206C10.847 16.5206 9.71221 16.0813 8.83367 15.2028C7.0766 13.4457 7.0766 10.5905 8.83367 8.83343C10.5907 7.07636 13.446 7.07636 15.2031 8.83343C16.9601 10.5905 16.9601 13.4457 15.2031 15.2028C14.3245 16.0813 13.1531 16.5206 12.0184 16.5206ZM12.0184 9.67536C11.4327 9.67536 10.847 9.89499 10.3711 10.3343C9.45597 11.2494 9.45597 12.7136 10.3711 13.5922C11.2863 14.5073 12.7505 14.5073 13.629 13.5922C14.5442 12.677 14.5442 11.2128 13.629 10.3343C13.1897 9.9316 12.6041 9.67536 12.0184 9.67536Z" fill="#2D302D"/>
<path d="M5.90516 13.1163H2.09817C1.47587 13.1163 1 12.6404 1 12.0181C1 11.3958 1.47587 10.9199 2.09817 10.9199H5.90516C6.52745 10.9199 7.00333 11.3958 7.00333 12.0181C7.00333 12.6404 6.52745 13.1163 5.90516 13.1163Z" fill="#2D302D"/>
<path d="M21.902 13.1163H18.095C17.4727 13.1163 16.9968 12.6404 16.9968 12.0181C16.9968 11.3958 17.4727 10.9199 18.095 10.9199H21.902C22.5243 10.9199 23.0002 11.3958 23.0002 12.0181C23.0002 12.6404 22.5243 13.1163 21.902 13.1163Z" fill="#2D302D"/>
<path d="M4.99002 20.1083C4.69717 20.1083 4.44093 19.9985 4.2213 19.7788C3.78203 19.3396 3.78203 18.6441 4.2213 18.2414L6.93012 15.5326C7.36938 15.0933 8.06489 15.0933 8.46755 15.5326C8.90682 15.9718 8.90682 16.6674 8.46755 17.07L5.75873 19.7788C5.57571 19.9985 5.28286 20.1083 4.99002 20.1083Z" fill="#2D302D"/>
<path d="M16.3011 8.79712C16.0082 8.79712 15.752 8.68731 15.5323 8.46767C15.0931 8.02841 15.0931 7.3329 15.5323 6.93024L18.534 3.92857C18.9733 3.4893 19.6688 3.4893 20.0714 3.92857C20.5107 4.36784 20.5107 5.06335 20.0714 5.46601L17.1064 8.46767C16.8867 8.68731 16.5939 8.79712 16.3011 8.79712Z" fill="#2D302D"/>
<path d="M12.0183 7.00333C11.396 7.00333 10.9202 6.52745 10.9202 5.90516V2.09817C10.9202 1.47587 11.396 1 12.0183 1C12.6406 1 13.1165 1.47587 13.1165 2.09817V5.90516C13.1165 6.52745 12.604 7.00333 12.0183 7.00333Z" fill="#2D302D"/>
<path d="M12.0183 22.9999C11.396 22.9999 10.9202 22.524 10.9202 21.9017V18.0948C10.9202 17.4725 11.396 16.9966 12.0183 16.9966C12.6406 16.9966 13.1165 17.4725 13.1165 18.0948V21.9017C13.1165 22.524 12.604 22.9999 12.0183 22.9999Z" fill="#2D302D"/>
<path d="M19.0099 20.1083C18.717 20.1083 18.4608 19.9985 18.2412 19.7788L15.5323 17.1066C15.0931 16.6674 15.0931 15.9719 15.5323 15.5692C15.9716 15.1299 16.6671 15.1299 17.0698 15.5692L19.7786 18.278C20.2179 18.7173 20.2179 19.4128 19.7786 19.8155C19.559 19.9985 19.3027 20.1083 19.0099 20.1083Z" fill="#2D302D"/>
<path d="M7.69883 8.79676C7.40599 8.79676 7.14975 8.68694 6.93012 8.46731L4.2213 5.75849C3.78203 5.31922 3.78203 4.62371 4.2213 4.22105C4.66056 3.78178 5.35607 3.78178 5.75873 4.22105L8.46755 6.92987C8.90682 7.36914 8.90682 8.06464 8.46755 8.46731C8.24792 8.68694 7.99168 8.79676 7.69883 8.79676Z" fill="#2D302D"/>
</svg>
