<svg width="24" height="24" viewBox="0 0 24 24" fill="none" xmlns="http://www.w3.org/2000/svg">
<path d="M16.882 18C16.5839 18 16.323 17.8882 16.0994 17.6646L6.3354 7.90062C5.8882 7.45342 5.8882 6.74534 6.3354 6.3354C6.78261 5.8882 7.49068 5.8882 7.90062 6.3354L17.6646 16.0621C18.1118 16.5093 18.1118 17.2174 17.6646 17.6273C17.441 17.8882 17.1429 18 16.882 18Z" fill="#2D302D"/>
<path d="M7.11801 18C6.81988 18 6.55901 17.8882 6.3354 17.6646C5.8882 17.2174 5.8882 16.5093 6.3354 16.0994L16.0621 6.3354C16.5093 5.8882 17.2174 5.8882 17.6273 6.3354C18.0745 6.78261 18.0745 7.49068 17.6273 7.90062L7.90062 17.6646C7.67702 17.8882 7.41615 18 7.11801 18Z" fill="#2D302D"/>
</svg>
