<svg width="24" height="24" viewBox="0 0 24 24" fill="none" xmlns="http://www.w3.org/2000/svg">
<path d="M12 23C5.92977 23 1 18.0702 1 12C1 5.92977 5.92977 1 12 1C18.0702 1 23 5.92977 23 12C23 18.0702 18.0702 23 12 23ZM12 3.20736C7.14381 3.20736 3.20736 7.14381 3.20736 12C3.20736 16.8562 7.14381 20.7926 12 20.7926C16.8562 20.7926 20.7926 16.8562 20.7926 12C20.7926 7.14381 16.8562 3.20736 12 3.20736Z" fill="#2D302D"/>
<path d="M14.796 15.8994C14.5017 15.8994 14.2442 15.7891 14.0234 15.5683L8.43145 9.97635C7.98997 9.53488 7.98997 8.83588 8.43145 8.4312C8.87292 7.98973 9.57191 7.98973 9.9766 8.4312L15.5686 14.0232C16.01 14.4646 16.01 15.1636 15.5686 15.5683C15.3478 15.7891 15.0903 15.8994 14.796 15.8994Z" fill="#2D302D"/>
<path d="M9.20402 15.8994C8.90971 15.8994 8.65218 15.7891 8.43145 15.5683C7.98997 15.1269 7.98997 14.4279 8.43145 14.0232L14.0234 8.4312C14.4649 7.98973 15.1639 7.98973 15.5686 8.4312C16.01 8.87267 16.01 9.57167 15.5686 9.97635L9.9766 15.5683C9.79265 15.7891 9.49833 15.8994 9.20402 15.8994Z" fill="#2D302D"/>
</svg>
